<svg xmlns="http://www.w3.org/2000/svg" width="20" height="20" viewBox="0 0 20 20">
  <path id="account_circle" d="M83.85-864.9a10.436,10.436,0,0,1,2.85-1.537A9.737,9.737,0,0,1,90-867a9.737,9.737,0,0,1,3.3.563,10.436,10.436,0,0,1,2.85,1.537,7.729,7.729,0,0,0,1.362-2.325A7.838,7.838,0,0,0,98-870a7.712,7.712,0,0,0-2.338-5.662A7.712,7.712,0,0,0,90-878a7.712,7.712,0,0,0-5.662,2.338A7.712,7.712,0,0,0,82-870a7.838,7.838,0,0,0,.488,2.775A7.729,7.729,0,0,0,83.85-864.9ZM90-869a3.382,3.382,0,0,1-2.488-1.012A3.382,3.382,0,0,1,86.5-872.5a3.381,3.381,0,0,1,1.012-2.487A3.382,3.382,0,0,1,90-876a3.382,3.382,0,0,1,2.488,1.012A3.381,3.381,0,0,1,93.5-872.5a3.382,3.382,0,0,1-1.012,2.488A3.382,3.382,0,0,1,90-869Zm0,9a9.738,9.738,0,0,1-3.9-.787,10.1,10.1,0,0,1-3.175-2.138,10.1,10.1,0,0,1-2.137-3.175A9.738,9.738,0,0,1,80-870a9.738,9.738,0,0,1,.787-3.9,10.1,10.1,0,0,1,2.137-3.175,10.1,10.1,0,0,1,3.175-2.138A9.738,9.738,0,0,1,90-880a9.738,9.738,0,0,1,3.9.787,10.1,10.1,0,0,1,3.175,2.138,10.1,10.1,0,0,1,2.138,3.175A9.738,9.738,0,0,1,100-870a9.738,9.738,0,0,1-.787,3.9,10.1,10.1,0,0,1-2.138,3.175,10.1,10.1,0,0,1-3.175,2.138A9.738,9.738,0,0,1,90-860Zm0-2a7.931,7.931,0,0,0,2.5-.388,7.53,7.53,0,0,0,2.15-1.112,7.529,7.529,0,0,0-2.15-1.113A7.933,7.933,0,0,0,90-865a7.933,7.933,0,0,0-2.5.388,7.529,7.529,0,0,0-2.15,1.113,7.53,7.53,0,0,0,2.15,1.112A7.931,7.931,0,0,0,90-862Zm0-9a1.457,1.457,0,0,0,1.075-.425A1.457,1.457,0,0,0,91.5-872.5a1.457,1.457,0,0,0-.425-1.075A1.457,1.457,0,0,0,90-874a1.457,1.457,0,0,0-1.075.425A1.457,1.457,0,0,0,88.5-872.5a1.457,1.457,0,0,0,.425,1.075A1.457,1.457,0,0,0,90-871ZM90-872.5ZM90-863.5Z" transform="translate(-80 880)" fill="#995ce3"/>
</svg>
