<svg xmlns="http://www.w3.org/2000/svg" xmlns:xlink="http://www.w3.org/1999/xlink" width="78" height="25.446" viewBox="0 0 78 25.446">
  <defs>
    <linearGradient id="linear-gradient" x1="0.032" x2="0.954" y2="1.149" gradientUnits="objectBoundingBox">
      <stop offset="0" stop-color="#7a6fe9"/>
      <stop offset="0.536" stop-color="#1bc7e3"/>
      <stop offset="0.812" stop-color="#17cbe3"/>
      <stop offset="1" stop-color="#00e0e1"/>
    </linearGradient>
  </defs>
  <path id="Intersection_2" data-name="Intersection 2" d="M-699.969-1064.136a3.19,3.19,0,0,1-1.65-1.887,11.318,11.318,0,0,1-.492-3.757v-7.514h-2.006v-3.775h2.006v-4.522h4.522v4.522h4.352v3.775h-4.352v6.323a13.984,13.984,0,0,0,.119,2.074,1.562,1.562,0,0,0,.527,1.054,2.1,2.1,0,0,0,1.258.306q.238,0,.714-.034l.952-.068q.475-.035.782-.068l.136,3.638q-.51.1-1.241.2t-1.428.187a9.934,9.934,0,0,1-1.173.085A7.156,7.156,0,0,1-699.969-1064.136Zm9.706-.833a5.521,5.521,0,0,1-1.343-4.063,5.531,5.531,0,0,1,.68-2.975,3.9,3.9,0,0,1,2.022-1.564,11.343,11.343,0,0,1,3.281-.595l4.148-.373v-1.021a2.092,2.092,0,0,0-.612-1.716,2.819,2.819,0,0,0-1.8-.493q-.953,0-2.193.068t-2.448.17q-1.207.1-2.091.2l-.137-3.2q.884-.2,2.126-.425t2.6-.357q1.359-.136,2.516-.136a10.514,10.514,0,0,1,3.638.544,4.193,4.193,0,0,1,2.21,1.786,5.32,5.32,0,0,1,.665,2.042v13.334q-.29,0-.563-.009a5.96,5.96,0,0,1-.85-.085,3.818,3.818,0,0,1-1.343-.409,3.935,3.935,0,0,1-.9-.645q-.543.238-1.462.544a15.365,15.365,0,0,1-1.989.51,11.521,11.521,0,0,1-2.159.2A5.422,5.422,0,0,1-690.262-1064.969Zm5.321-6.443a2.349,2.349,0,0,0-1.615.663,2.318,2.318,0,0,0-.493,1.581,2.505,2.505,0,0,0,.459,1.6,1.693,1.693,0,0,0,1.411.578,7.259,7.259,0,0,0,1.36-.136,13.434,13.434,0,0,0,1.343-.323,8,8,0,0,0,1-.356v-3.911Zm-30.379,7.667q-1.274-.119-2.38-.289t-1.887-.34l.136-3.366q.884.1,1.989.239t2.176.22q1.071.085,1.75.086a6.928,6.928,0,0,0,1.683-.17,1.919,1.919,0,0,0,1-.562,1.685,1.685,0,0,0,.34-1.139,1.235,1.235,0,0,0-.29-.884,2.411,2.411,0,0,0-1.087-.527,22,22,0,0,0-2.329-.459,13.346,13.346,0,0,1-3.145-.782,3.581,3.581,0,0,1-1.819-1.513,5.492,5.492,0,0,1-.578-2.737,5.28,5.28,0,0,1,.918-3.3,4.9,4.9,0,0,1,2.448-1.683,10.783,10.783,0,0,1,3.332-.493q1.191,0,2.448.119t2.38.289q1.122.17,1.869.34l-.136,3.434q-.849-.135-1.972-.255t-2.227-.187q-1.106-.068-1.853-.068a5.735,5.735,0,0,0-1.394.153,1.884,1.884,0,0,0-.935.493,1.43,1.43,0,0,0-.323,1.02,1.136,1.136,0,0,0,.272.782,2.239,2.239,0,0,0,1.038.526,17.116,17.116,0,0,0,2.227.426,13.59,13.59,0,0,1,3.366.85,3.62,3.62,0,0,1,1.819,1.564,5.724,5.724,0,0,1,.562,2.754,5.8,5.8,0,0,1-.816,3.263,4.551,4.551,0,0,1-2.38,1.769,11.662,11.662,0,0,1-3.808.544Q-714.045-1063.626-715.32-1063.745Zm-19.108-.833a5.337,5.337,0,0,1-2.363-2.891,14.2,14.2,0,0,1-.714-4.862,12.7,12.7,0,0,1,.9-5.168,6.184,6.184,0,0,1,2.635-2.975,8.683,8.683,0,0,1,4.284-.968,7.771,7.771,0,0,1,5.7,1.9q1.921,1.9,1.921,6.018l-.2,2.516h-10.676a4.713,4.713,0,0,0,.782,2.856,3.1,3.1,0,0,0,2.584.952q1.054,0,2.312-.051t2.5-.119q1.241-.069,2.125-.136l.1,3.162q-.849.136-2.142.306t-2.669.289q-1.377.119-2.6.119A8.943,8.943,0,0,1-734.428-1064.578Zm2.941-13.056a2.574,2.574,0,0,0-1.088,1.326,6.5,6.5,0,0,0-.374,2.414h6.359a5.327,5.327,0,0,0-.732-3.229,2.84,2.84,0,0,0-2.363-.918A3.594,3.594,0,0,0-731.487-1077.634Zm-19.108,13.94q-1.224-.069-2.5-.2l-.906-.1v-24.044h3.2v7.514a12.041,12.041,0,0,1,1.258-.409q.748-.2,1.58-.356a8.539,8.539,0,0,1,1.547-.153,6.6,6.6,0,0,1,3.791.968,5.315,5.315,0,0,1,2.023,2.874,15.888,15.888,0,0,1,.612,4.793,15.7,15.7,0,0,1-.765,5.423,4.989,4.989,0,0,1-2.635,2.89,12.437,12.437,0,0,1-5.134.867Q-749.372-1063.626-750.595-1063.694Zm1.9-13.821q-.612.119-1.173.272t-.935.289v9.384q.51.034,1.19.085t1.122.05a4.217,4.217,0,0,0,2.482-.595,2.983,2.983,0,0,0,1.1-1.785,12.61,12.61,0,0,0,.289-2.924,11.919,11.919,0,0,0-.272-2.839,2.774,2.774,0,0,0-.9-1.563,2.769,2.769,0,0,0-1.75-.493A6.077,6.077,0,0,0-748.691-1077.515Z" transform="translate(754.5 1088.538)" fill="url(#linear-gradient)"/>
</svg>
