<svg xmlns="http://www.w3.org/2000/svg" width="20" height="20" viewBox="0 0 20 20">
  <path id="calendar-week" d="M15,10H5a1.668,1.668,0,0,0-1.667,1.667v1.667A1.668,1.668,0,0,0,5,15H15a1.668,1.668,0,0,0,1.667-1.667V11.667A1.668,1.668,0,0,0,15,10ZM5,13.333V11.667H15v1.667ZM15.833,1.667H15V.833a.833.833,0,0,0-1.667,0v.833H6.667V.833A.833.833,0,1,0,5,.833v.833H4.167A4.171,4.171,0,0,0,0,5.833v10A4.171,4.171,0,0,0,4.167,20H15.833A4.171,4.171,0,0,0,20,15.833v-10A4.171,4.171,0,0,0,15.833,1.667ZM4.167,3.333H15.833a2.5,2.5,0,0,1,2.5,2.5v.833H1.667V5.833A2.5,2.5,0,0,1,4.167,3.333Zm11.667,15H4.167a2.5,2.5,0,0,1-2.5-2.5v-7.5H18.333v7.5A2.5,2.5,0,0,1,15.833,18.333Z" fill="#353068"/>
</svg>
