<svg xmlns="http://www.w3.org/2000/svg" width="26" height="26" viewBox="0 0 26 26">
  <path id="calendar-days" d="M20.583,2.167H19.5V1.083a1.083,1.083,0,1,0-2.167,0V2.167H8.667V1.083a1.083,1.083,0,0,0-2.167,0V2.167H5.417A5.419,5.419,0,0,0,0,7.583v13A5.419,5.419,0,0,0,5.417,26H20.583A5.419,5.419,0,0,0,26,20.583v-13A5.419,5.419,0,0,0,20.583,2.167ZM11.917,9.75V13H8.667V9.75Zm5.417,0V13h-3.25V9.75Zm6.5,0V13H19.5V9.75ZM6.5,13H2.167V9.75H6.5ZM2.167,15.167H6.5v3.25H2.167Zm6.5,0h3.25v3.25H8.667Zm3.25,5.417v3.25H8.667v-3.25Zm2.167,0h3.25v3.25h-3.25Zm0-2.167v-3.25h3.25v3.25Zm5.417-3.25h4.333v3.25H19.5ZM5.417,4.333H20.583a3.26,3.26,0,0,1,3.25,3.25H2.167A3.26,3.26,0,0,1,5.417,4.333Zm-3.25,16.25H6.5v3.25H5.417A3.26,3.26,0,0,1,2.167,20.583Zm18.417,3.25H19.5v-3.25h4.333A3.26,3.26,0,0,1,20.583,23.833Z" fill="#c5c5c5"/>
</svg>
