<svg xmlns="http://www.w3.org/2000/svg" width="20" height="20" viewBox="0 0 20 20">
  <path id="calendar-lines" d="M15.833,1.667H15V.833a.833.833,0,0,0-1.667,0v.833H6.667V.833A.833.833,0,1,0,5,.833v.833H4.167A4.171,4.171,0,0,0,0,5.833v10A4.171,4.171,0,0,0,4.167,20H15.833A4.171,4.171,0,0,0,20,15.833v-10A4.171,4.171,0,0,0,15.833,1.667ZM4.167,3.333H15.833a2.5,2.5,0,0,1,2.5,2.5v.833H1.667V5.833A2.5,2.5,0,0,1,4.167,3.333Zm11.667,15H4.167a2.5,2.5,0,0,1-2.5-2.5v-7.5H18.333v7.5A2.5,2.5,0,0,1,15.833,18.333Zm0-6.667A.833.833,0,0,1,15,12.5H5a.833.833,0,1,1,0-1.667H15A.833.833,0,0,1,15.833,11.667ZM10,15a.833.833,0,0,1-.833.833H5a.833.833,0,1,1,0-1.667H9.167A.833.833,0,0,1,10,15Z" fill="#353068"/>
</svg>
