<svg id="chart-histogram" xmlns="http://www.w3.org/2000/svg" width="26" height="26" viewBox="0 0 26 26">
  <path id="Path_13" data-name="Path 13" d="M24.917,23.833H5.417a3.25,3.25,0,0,1-3.25-3.25V1.083A1.083,1.083,0,1,0,0,1.083v19.5A5.423,5.423,0,0,0,5.417,26h19.5a1.083,1.083,0,0,0,0-2.167Z" fill="#c5c5c5"/>
  <path id="Path_14" data-name="Path 14" d="M6,20a1,1,0,0,0,1-1V12a1,1,0,0,0-2,0v7A1,1,0,0,0,6,20Z" transform="translate(0.455 1.467)" fill="#c5c5c5"/>
  <path id="Path_15" data-name="Path 15" d="M10,10v9a1,1,0,0,0,2,0V10a1,1,0,0,0-2,0Z" transform="translate(0.909 1.385)" fill="#c5c5c5"/>
  <path id="Path_16" data-name="Path 16" d="M15,13v6a1,1,0,0,0,2,0V13a1,1,0,0,0-2,0Z" transform="translate(1.364 1.5)" fill="#c5c5c5"/>
  <path id="Path_17" data-name="Path 17" d="M20,9V19a1,1,0,0,0,2,0V9a1,1,0,0,0-2,0Z" transform="translate(2 1.333)" fill="#c5c5c5"/>
  <path id="Path_18" data-name="Path 18" d="M6,9a1,1,0,0,0,.707-.293l3.586-3.586a1.025,1.025,0,0,1,1.414,0l2.172,2.172a3,3,0,0,0,4.242,0l5.586-5.586A1,1,0,1,0,22.293.293L16.707,5.878a1,1,0,0,1-1.414,0L13.121,3.707a3,3,0,0,0-4.242,0L5.293,7.293A1,1,0,0,0,6,9Z" transform="translate(2)" fill="#c5c5c5"/>
</svg>
