<svg xmlns="http://www.w3.org/2000/svg" width="20" height="20.955" viewBox="0 0 20 20.955">
  <g id="edit" transform="translate(0 0.955)">
    <path id="Path_25" data-name="Path 25" d="M16.51.792,6.234,11.083A4.2,4.2,0,0,0,5,14.067V15.2a.843.843,0,0,0,.843.844H6.975a4.183,4.183,0,0,0,2.98-1.236L20.231,4.518a2.641,2.641,0,0,0,0-3.726,2.689,2.689,0,0,0-3.72,0Zm2.529,2.532L8.763,13.616a2.544,2.544,0,0,1-1.788.741H6.686v-.29a2.551,2.551,0,0,1,.74-1.79L17.7,1.986a.967.967,0,0,1,1.337,0,.949.949,0,0,1,0,1.339Z" transform="translate(-1 -1)" fill="#353068"/>
    <path id="Path_26" data-name="Path 26" d="M19.167,7.482a.833.833,0,0,0-.833.833V12.5H15A2.5,2.5,0,0,0,12.5,15v3.333H4.167a2.5,2.5,0,0,1-2.5-2.5V4.167a2.5,2.5,0,0,1,2.5-2.5H11.7A.833.833,0,0,0,11.7,0H4.167A4.172,4.172,0,0,0,0,4.167V15.833A4.172,4.172,0,0,0,4.167,20h9.452a4.14,4.14,0,0,0,2.947-1.22l2.213-2.215A4.14,4.14,0,0,0,20,13.619v-5.3A.833.833,0,0,0,19.167,7.482ZM15.387,17.6a2.479,2.479,0,0,1-1.221.667V15A.833.833,0,0,1,15,14.167h3.271a2.513,2.513,0,0,1-.667,1.22Z" fill="#353068"/>
  </g>
</svg>
