<svg xmlns="http://www.w3.org/2000/svg" xmlns:xlink="http://www.w3.org/1999/xlink" width="173.802" height="62.768" viewBox="0 0 173.802 62.768">
  <defs>
    <linearGradient id="linear-gradient" x1="0.78" y1="0.623" x2="0.034" y2="-0.183" gradientUnits="objectBoundingBox">
      <stop offset="0" stop-color="#7a6fe9"/>
      <stop offset="1" stop-color="#00e0e1"/>
    </linearGradient>
  </defs>
  <path id="Intersection_1" data-name="Intersection 1" d="M-1090.736,23.17a14.224,14.224,0,0,1-5.029-3.027,14.034,14.034,0,0,1-3.3-4.785,15.845,15.845,0,0,1-1.2-6.275,16.18,16.18,0,0,1,1.392-6.836,14.561,14.561,0,0,1,3.882-5.127,17.149,17.149,0,0,1,5.957-3.2,25.276,25.276,0,0,1,7.665-1.1,38.114,38.114,0,0,1,5.665.391,39.426,39.426,0,0,1,4.541.928v-1.9a9.278,9.278,0,0,0-.561-3.2,7.177,7.177,0,0,0-1.807-2.734,8.893,8.893,0,0,0-3.247-1.9,14.746,14.746,0,0,0-4.882-.707,32.318,32.318,0,0,0-7.032.781,55.053,55.053,0,0,0-7.617,2.344v-9.033a37.976,37.976,0,0,1,7.568-2.393,43.748,43.748,0,0,1,8.4-.878,29.2,29.2,0,0,1,9.058,1.269,19.027,19.027,0,0,1,6.493,3.492,14.092,14.092,0,0,1,3.907,5.249,16.6,16.6,0,0,1,1.293,6.592V8.938q0,4.687.1,8.056t.2,6.007h-10.449l-.489-5.03h-.2a21.871,21.871,0,0,1-2.344,2.1,22,22,0,0,1-3.125,2.027,18.276,18.276,0,0,1-3.906,1.538,17.584,17.584,0,0,1-4.639.586A18.526,18.526,0,0,1-1090.736,23.17Zm4.711-19.678a5.813,5.813,0,0,0-2.466,5.152,6.55,6.55,0,0,0,.562,2.808,5.589,5.589,0,0,0,1.514,1.977,6.444,6.444,0,0,0,2.222,1.172,9.09,9.09,0,0,0,2.686.391,11.627,11.627,0,0,0,3.32-.463,15.248,15.248,0,0,0,2.881-1.173,13.944,13.944,0,0,0,2.368-1.587,16.413,16.413,0,0,0,1.782-1.709V2.834q-1.659-.39-3.808-.708a29.717,29.717,0,0,0-4.346-.317A11.744,11.744,0,0,0-1086.025,3.493Zm-40.527,18.8a11.051,11.051,0,0,1-5.347-5.542,18.019,18.019,0,0,1-1.123-7.031V-14.793h-8.838v-9.521h8.838V-37.547h11.572v13.233h13.672v9.521h-13.672v23a7.77,7.77,0,0,0,.831,4.053q1.465,2.246,5.81,2.245a25.069,25.069,0,0,0,3.979-.317,34.346,34.346,0,0,0,3.736-.806v9.57a29.081,29.081,0,0,1-4.663.928,40.581,40.581,0,0,1-5.054.342A21.43,21.43,0,0,1-1126.552,22.292Zm-48.1,1.22a26.932,26.932,0,0,1-5.933-1.782V12.4a37.189,37.189,0,0,0,7.032,1.929,38.442,38.442,0,0,0,6.006.512,23.793,23.793,0,0,0,4-.317,11.2,11.2,0,0,0,3.2-1,5.939,5.939,0,0,0,2.124-1.733,4.091,4.091,0,0,0,.782-2.515,3.645,3.645,0,0,0-.855-2.49,6.743,6.743,0,0,0-2.271-1.635,19.83,19.83,0,0,0-3.247-1.148q-1.831-.489-3.832-.976a48.9,48.9,0,0,1-4.883-1.587,14.848,14.848,0,0,1-4.125-2.369,10.5,10.5,0,0,1-2.832-3.686,12.694,12.694,0,0,1-1.049-5.444,15.5,15.5,0,0,1,1.416-6.861,13.626,13.626,0,0,1,3.833-4.81,16.308,16.308,0,0,1,5.615-2.831,24.134,24.134,0,0,1,6.763-.928,44.562,44.562,0,0,1,8.154.708,42.965,42.965,0,0,1,6.885,1.831v9.424q-1.61-.537-3.393-1t-3.614-.806q-1.831-.343-3.638-.562a28.32,28.32,0,0,0-3.418-.22,13.192,13.192,0,0,0-3.467.391,6.827,6.827,0,0,0-2.295,1.049,3.956,3.956,0,0,0-1.269,1.514,4.231,4.231,0,0,0-.391,1.782,3.981,3.981,0,0,0,.854,2.637,6.063,6.063,0,0,0,2.368,1.66,21.971,21.971,0,0,0,3.174,1.05l3.223.806q2.441.586,4.882,1.416a15.341,15.341,0,0,1,4.395,2.319,11.486,11.486,0,0,1,3.2,3.857A12.9,12.9,0,0,1-1146.01,8.4a15.223,15.223,0,0,1-1.514,6.982,13.793,13.793,0,0,1-4.224,4.956,18.575,18.575,0,0,1-6.495,2.93,34.108,34.108,0,0,1-8.325.952A41.913,41.913,0,0,1-1174.648,23.513Zm-42.236-.586a20.769,20.769,0,0,1-7.886-4.174,20.093,20.093,0,0,1-5.347-7.471A28.083,28.083,0,0,1-1232.094.149a31.379,31.379,0,0,1,1.856-11.28,22.963,22.963,0,0,1,4.98-8.007A20.5,20.5,0,0,1-1218.1-23.9a22.527,22.527,0,0,1,8.325-1.587,24.188,24.188,0,0,1,8.276,1.367,16.633,16.633,0,0,1,6.543,4.3,20.083,20.083,0,0,1,4.3,7.544,34.626,34.626,0,0,1,1.538,10.913q-.049,2.442-.147,4.151h-31.006a14.19,14.19,0,0,0,1.465,5.591,10.766,10.766,0,0,0,3.2,3.759,13.155,13.155,0,0,0,4.613,2.1,23.532,23.532,0,0,0,5.713.659,38.358,38.358,0,0,0,7.032-.683,54.428,54.428,0,0,0,7.421-1.953v9.229a34.683,34.683,0,0,1-6.885,1.855,51.572,51.572,0,0,1-9.619.879A34.484,34.484,0,0,1-1216.884,22.927Zm3.052-38.574a9.187,9.187,0,0,0-2.955,2.2,10.742,10.742,0,0,0-1.977,3.247,15.676,15.676,0,0,0-.977,3.956h18.6a13.587,13.587,0,0,0-.562-3.956,9.732,9.732,0,0,0-1.661-3.247,7.864,7.864,0,0,0-2.734-2.2,8.576,8.576,0,0,0-3.833-.805A9.053,9.053,0,0,0-1213.832-15.647ZM-1059.291,23Z" transform="translate(1232.594 38.047)" stroke="rgba(0,0,0,0)" stroke-linejoin="bevel" stroke-miterlimit="10" stroke-width="1" fill="url(#linear-gradient)"/>
</svg>
