<svg xmlns="http://www.w3.org/2000/svg" width="20" height="20.003" viewBox="0 0 20 20.003">
  <path id="expense" d="M19.185,7.322a2.509,2.509,0,0,0-3.546.166l-2.681,2.945a2.621,2.621,0,0,0-2.241-1.266H7.5V8.333h.313a2.187,2.187,0,0,0,.359-4.344L5.437,3.533A.52.52,0,0,1,5.523,2.5h2.2a.839.839,0,0,1,.723.417.833.833,0,1,0,1.442-.834A2.508,2.508,0,0,0,7.725.831H7.5a.833.833,0,1,0-1.667,0H5.522a2.187,2.187,0,0,0-.359,4.344L7.9,5.632a.52.52,0,0,1-.086,1.033h-2.2a.839.839,0,0,1-.723-.417.833.833,0,1,0-1.442.834A2.507,2.507,0,0,0,5.612,8.333h.223v.833h-2.5A3.337,3.337,0,0,0,0,12.5v4.167A3.337,3.337,0,0,0,3.335,20H7.473A8.343,8.343,0,0,0,13.7,17.21l5.671-6.365a2.518,2.518,0,0,0-.182-3.526ZM18.122,9.738,12.45,16.1a6.674,6.674,0,0,1-4.978,2.232H3.334a1.669,1.669,0,0,1-1.667-1.667V12.5a1.669,1.669,0,0,1,1.667-1.667h7.382a.952.952,0,0,1,.136,1.894l-4.3.614a.833.833,0,1,0,.236,1.649l4.3-.614a2.635,2.635,0,0,0,2.1-1.715l3.69-4.055a.835.835,0,0,1,.583-.274.863.863,0,0,1,.607.218.846.846,0,0,1,.06,1.184ZM10.836,3.347a.833.833,0,0,1,.833-.833h3.4l-1.075-1.1A.834.834,0,1,1,15.182.249L17,2.1a1.752,1.752,0,0,1-.006,2.472L15.182,6.416a.834.834,0,1,1-1.19-1.168l1.048-1.07h-3.37a.833.833,0,0,1-.833-.833Z" transform="translate(-0.001 0.002)" fill="#353068"/>
</svg>
