<svg xmlns="http://www.w3.org/2000/svg" width="20" height="20" viewBox="0 0 20 20">
  <path id="file-invoice-dollar" d="M14.043,19.167a.852.852,0,0,1-.87.833H5.348A4.265,4.265,0,0,1,1,15.833V4.167A4.265,4.265,0,0,1,5.348,0H9.274a6.186,6.186,0,0,1,4.3,1.708l3.03,2.905a5.936,5.936,0,0,1,.65.736.812.812,0,0,1-.2,1.163.894.894,0,0,1-1.213-.194,4.2,4.2,0,0,0-.464-.525l-3.03-2.9a4.342,4.342,0,0,0-.914-.671V5.833a.853.853,0,0,0,.87.833h2.609a.834.834,0,1,1,0,1.667H12.3A2.559,2.559,0,0,1,9.7,5.833V1.686c-.139-.013-.28-.019-.422-.019H5.348a2.559,2.559,0,0,0-2.609,2.5V15.833a2.559,2.559,0,0,0,2.609,2.5h7.826A.852.852,0,0,1,14.043,19.167Zm4.943-5.611-2.644-.423a.649.649,0,0,1-.56-.633.853.853,0,0,1,.87-.833h1.972a.883.883,0,0,1,.754.417.89.89,0,0,0,1.188.3.813.813,0,0,0,.317-1.138A2.639,2.639,0,0,0,18.623,10H18.39V9.166a.87.87,0,0,0-1.739,0V10a2.559,2.559,0,0,0-2.609,2.5,2.333,2.333,0,0,0,2.013,2.278L18.7,15.2a.649.649,0,0,1,.56.633.853.853,0,0,1-.87.833H16.418a.883.883,0,0,1-.754-.417.888.888,0,0,0-1.188-.3.813.813,0,0,0-.317,1.138,2.639,2.639,0,0,0,2.259,1.249h.233v.833a.87.87,0,0,0,1.739,0v-.833A2.559,2.559,0,0,0,21,15.833a2.333,2.333,0,0,0-2.013-2.278ZM6.652,12.5h4.783a.834.834,0,1,0,0-1.667H6.652a2.133,2.133,0,0,0-2.174,2.083v1.667a2.133,2.133,0,0,0,2.174,2.083h4.783a.834.834,0,1,0,0-1.667H6.652a.426.426,0,0,1-.435-.417V12.917a.426.426,0,0,1,.435-.417Zm-1.3-3.333H7.087a.834.834,0,1,0,0-1.667H5.348a.834.834,0,1,0,0,1.667Zm0-3.333H7.087a.834.834,0,1,0,0-1.667H5.348a.834.834,0,1,0,0,1.667Z" transform="translate(-1)" fill="#353068"/>
</svg>
