<svg xmlns="http://www.w3.org/2000/svg" xmlns:xlink="http://www.w3.org/1999/xlink" width="24" height="24" viewBox="0 0 24 24">
  <defs>
    <clipPath id="clip-path">
      <rect id="Rectangle_17" data-name="Rectangle 17" width="24" height="24" fill="#fff"/>
    </clipPath>
  </defs>
  <g id="google_icon" clip-path="url(#clip-path)">
    <path id="Path_4" data-name="Path 4" d="M10,8.182v4.647h6.458a5.533,5.533,0,0,1-2.411,3.611l3.894,3.022a11.724,11.724,0,0,0,3.578-8.825A13.786,13.786,0,0,0,21.3,8.182Z" transform="translate(2 1.636)" fill="#4285f4"/>
    <path id="Path_5" data-name="Path 5" d="M5.06,11.9l-.878.672L1.073,15a12,12,0,0,0,10.712,6.622,11.453,11.453,0,0,0,7.942-2.9L15.832,15.7A7.215,7.215,0,0,1,5.065,11.91Z" transform="translate(0.215 2.381)" fill="#34a853"/>
    <path id="Path_6" data-name="Path 6" d="M1.287,5.518a11.879,11.879,0,0,0,0,10.756c0,.011,3.993-3.1,3.993-3.1a7,7,0,0,1,0-4.56Z" transform="translate(0 1.104)" fill="#fbbc05"/>
    <path id="Path_7" data-name="Path 7" d="M11.785,4.778a6.547,6.547,0,0,1,4.593,1.789l3.436-3.436A11.512,11.512,0,0,0,11.785,0,11.979,11.979,0,0,0,1.073,6.622l3.993,3.1A7.164,7.164,0,0,1,11.785,4.778Z" transform="translate(0.215)" fill="#ea4335"/>
  </g>
</svg>
