<svg xmlns="http://www.w3.org/2000/svg" width="26" height="26" viewBox="0 0 26 26">
  <path id="house-chimney" d="M23.833,6.2V2.167a1.083,1.083,0,0,0-2.167,0V4.729L16.03.926a5.4,5.4,0,0,0-6.06,0L2.387,6.043A5.409,5.409,0,0,0,0,10.533V20.58A5.422,5.422,0,0,0,5.417,26h3.25A1.083,1.083,0,0,0,9.75,24.912V16.247a1.084,1.084,0,0,1,1.083-1.083h4.333a1.084,1.084,0,0,1,1.083,1.083v8.665A1.083,1.083,0,0,0,17.333,26h3.25A5.422,5.422,0,0,0,26,20.58V10.533A5.41,5.41,0,0,0,23.833,6.2Zm0,14.38a3.254,3.254,0,0,1-3.25,3.249H18.417V16.247A3.254,3.254,0,0,0,15.167,13H10.833a3.254,3.254,0,0,0-3.25,3.249v7.582H5.417a3.254,3.254,0,0,1-3.25-3.249V10.533A3.243,3.243,0,0,1,3.6,7.839l7.583-5.117a3.234,3.234,0,0,1,3.635,0L22.4,7.839a3.243,3.243,0,0,1,1.432,2.694V20.58Z" transform="translate(0 0.005)" fill="#353068"/>
</svg>
