<svg id="Component_4_1" data-name="Component 4 – 1" xmlns="http://www.w3.org/2000/svg" width="20" height="20.191" viewBox="0 0 20 20.191">
  <g id="hand-holding-usd" transform="translate(0 0.19)">
    <path id="Path_21" data-name="Path 21" d="M19.186,8.635a2.59,2.59,0,0,0-3.55.16l-2.684,2.829a2.641,2.641,0,0,0-2.242-1.218H3.334A3.27,3.27,0,0,0,0,13.61v4.006a3.27,3.27,0,0,0,3.334,3.205H7.468a8.5,8.5,0,0,0,6.226-2.684l5.676-6.122a2.361,2.361,0,0,0-.183-3.389Zm-1.058,2.324L12.452,17.08a6.8,6.8,0,0,1-4.976,2.147H3.334a1.64,1.64,0,0,1-1.667-1.6V13.618a1.64,1.64,0,0,1,1.667-1.6h7.384a.912.912,0,0,1,.133,1.819l-4.3.593a.8.8,0,0,0-.708.905.829.829,0,0,0,.942.681l4.3-.593a2.6,2.6,0,0,0,2.092-1.651l3.692-3.894a.838.838,0,0,1,.583-.264.916.916,0,0,1,.608.208.787.787,0,0,1,.058,1.138Z" transform="translate(0 -0.821)" fill="#353068"/>
    <path id="Path_22" data-name="Path 22" d="M8.509,8.284h.343a2.275,2.275,0,0,0,2.363-2.171A2.227,2.227,0,0,0,9.239,3.967L6.281,3.511A.532.532,0,0,1,5.812,3a.541.541,0,0,1,.559-.514H8.752a.923.923,0,0,1,.785.414.941.941,0,0,0,1.236.3A.791.791,0,0,0,11.1,2.061,2.772,2.772,0,0,0,8.752.819H8.509a.905.905,0,0,0-1.8,0H6.362A2.275,2.275,0,0,0,4,2.989,2.227,2.227,0,0,0,5.974,5.135l2.958.456A.532.532,0,0,1,9.4,6.1a.541.541,0,0,1-.559.514H6.461A.923.923,0,0,1,5.677,6.2a.945.945,0,0,0-1.236-.3.791.791,0,0,0-.325,1.135A2.772,2.772,0,0,0,6.461,8.284H6.7a.905.905,0,0,0,1.8,0Z" transform="translate(-0.998 -0.113)" fill="#353068"/>
  </g>
  <g id="Component_3_1" data-name="Component 3 – 1" transform="translate(17.587) rotate(90)">
    <g id="Rectangle_52" data-name="Rectangle 52" transform="translate(0 2.684)" fill="#353068" stroke="#353068" stroke-width="1">
      <rect width="7" height="1.7" rx="0.85" stroke="none"/>
      <rect x="0.5" y="0.5" width="6" height="0.7" rx="0.35" fill="none"/>
    </g>
    <g id="Rectangle_53" data-name="Rectangle 53" transform="translate(4.11) rotate(48)" fill="#353068" stroke="#353068" stroke-width="1">
      <rect width="4.782" height="1.7" rx="0.85" stroke="none"/>
      <rect x="0.5" y="0.5" width="3.782" height="0.7" rx="0.35" fill="none"/>
    </g>
    <g id="Rectangle_54" data-name="Rectangle 54" transform="translate(2.847 6.037) rotate(-48)" fill="#353068" stroke="#353068" stroke-width="1">
      <rect width="4.782" height="1.7" rx="0.85" stroke="none"/>
      <rect x="0.5" y="0.5" width="3.782" height="0.7" rx="0.35" fill="none"/>
    </g>
  </g>
</svg>
