<svg xmlns="http://www.w3.org/2000/svg" width="24" height="12" viewBox="0 0 24 12">
  <path id="password" d="M16.273,17.909A1.091,1.091,0,0,1,15.182,19H10.818a1.091,1.091,0,1,1,0-2.182h4.364A1.091,1.091,0,0,1,16.273,17.909ZM15.953,7.32a1.091,1.091,0,0,0-1.543,0L13,8.73,11.589,7.32a1.091,1.091,0,1,0-1.543,1.543l1.411,1.41-1.411,1.411a1.091,1.091,0,1,0,1.543,1.543L13,11.815l1.411,1.411a1.091,1.091,0,1,0,1.543-1.543l-1.411-1.41,1.411-1.411a1.091,1.091,0,0,0,0-1.543Zm7.956,9.5H19.545a1.091,1.091,0,0,0,0,2.182h4.364a1.091,1.091,0,1,0,0-2.182Zm-.639-6.545L24.68,8.862A1.091,1.091,0,1,0,23.138,7.32L21.727,8.73,20.317,7.32a1.091,1.091,0,1,0-1.543,1.543l1.411,1.41-1.411,1.411a1.091,1.091,0,1,0,1.543,1.543l1.41-1.411,1.411,1.411a1.091,1.091,0,1,0,1.543-1.543ZM6.455,16.818H2.091a1.091,1.091,0,1,0,0,2.182H6.455a1.091,1.091,0,1,0,0-2.182Zm.771-9.5a1.091,1.091,0,0,0-1.543,0L4.273,8.73,2.862,7.32A1.091,1.091,0,1,0,1.32,8.862l1.411,1.41L1.32,11.683a1.091,1.091,0,1,0,1.543,1.543l1.41-1.411,1.411,1.411a1.091,1.091,0,1,0,1.543-1.543l-1.411-1.41L7.226,8.862a1.091,1.091,0,0,0,0-1.543Z" transform="translate(-1 -7)" fill="#353068"/>
</svg>
