<svg xmlns="http://www.w3.org/2000/svg" width="25.988" height="26" viewBox="0 0 25.988 26">
  <g id="settings" transform="translate(-1.006 -1.001)">
    <path id="Path_19" data-name="Path 19" d="M12.208,8.328a3.364,3.364,0,0,0-2.67,1.209c-1.634,1.635-1.634,3.292,0,4.925a3.628,3.628,0,0,0,2.254,1.21,3.462,3.462,0,0,0,2.67-1.21c1.634-1.634,1.633-3.292,0-4.925a3.676,3.676,0,0,0-2.254-1.21Zm.84,4.721h0a1.828,1.828,0,0,1-1.1.629,1.844,1.844,0,0,1-.993-.629c-.787-.787-.9-1.2,0-2.1a1.842,1.842,0,0,1,1.061-.63h.041a1.844,1.844,0,0,1,.993.629C13.835,11.738,13.945,12.151,13.048,13.049Z" transform="translate(2 2.001)" fill="#c5c5c5"/>
    <path id="Path_20" data-name="Path 20" d="M26.994,13.947a3.349,3.349,0,0,0-3.039-3.6q-.2-.372-.43-.748a3.365,3.365,0,0,0-.293-4.828,3.362,3.362,0,0,0-4.831-.29q-.371-.234-.741-.425A3.345,3.345,0,0,0,14.083,1a3.413,3.413,0,0,0-3.647,3.1q-.369.193-.743.428a3.372,3.372,0,0,0-4.838.321,3.374,3.374,0,0,0-.321,4.835q-.236.376-.433.748a3.375,3.375,0,0,0-3.094,3.62,3.349,3.349,0,0,0,3.039,3.6c.13.248.273.5.431.748a3.364,3.364,0,0,0,.292,4.828,3.362,3.362,0,0,0,4.831.29q.371.234.741.425A3.345,3.345,0,0,0,13.917,27a3.392,3.392,0,0,0,3.647-3.1q.369-.193.743-.428a3.38,3.38,0,0,0,4.836-.321,3.366,3.366,0,0,0,.323-4.836q.236-.376.433-.747a3.375,3.375,0,0,0,3.094-3.62ZM23.012,15.3a1.181,1.181,0,0,0-.98.7,9.028,9.028,0,0,1-.992,1.677,1.185,1.185,0,0,0,.084,1.5c1.268,1.378.843,1.8.349,2.3-.514.515-.922.922-2.3-.35a1.185,1.185,0,0,0-1.5-.085A8.848,8.848,0,0,1,16,22.03a1.184,1.184,0,0,0-.7.982c-.139,1.619-.709,1.623-1.367,1.625s-1.2.007-1.326-1.567a1.18,1.18,0,0,0-.713-.994,8.437,8.437,0,0,1-1.661-.975,1.183,1.183,0,0,0-1.5.083c-1.393,1.285-1.811.865-2.292.383s-.9-.9.381-2.293a1.18,1.18,0,0,0,.08-1.5,8.49,8.49,0,0,1-.981-1.663,1.18,1.18,0,0,0-.992-.712c-1.566-.125-1.564-.656-1.56-1.327,0-.687.006-1.229,1.618-1.369a1.181,1.181,0,0,0,.98-.7,9.129,9.129,0,0,1,.992-1.678,1.185,1.185,0,0,0-.084-1.5c-1.268-1.377-.842-1.8-.349-2.3.514-.514.922-.921,2.3.349a1.182,1.182,0,0,0,1.5.085,8.956,8.956,0,0,1,1.675-.986,1.184,1.184,0,0,0,.7-.982c.139-1.619.709-1.623,1.367-1.625.677,0,1.2-.007,1.326,1.567a1.18,1.18,0,0,0,.713.994,8.437,8.437,0,0,1,1.661.975,1.183,1.183,0,0,0,1.5-.082c1.393-1.285,1.81-.865,2.292-.383s.9.9-.381,2.293a1.182,1.182,0,0,0-.082,1.5,8.49,8.49,0,0,1,.981,1.663,1.18,1.18,0,0,0,.992.712c1.566.125,1.564.656,1.56,1.327,0,.687-.006,1.229-1.618,1.369Z" transform="translate(0)" fill="#c5c5c5"/>
  </g>
</svg>
